<svg width="100%" height="100%" viewBox="-1 -1 31 31" xmlns="http://www.w3.org/2000/svg" xmlns:xlink="http://www.w3.org/1999/xlink" shape-rendering="crispEdges" id="qr code"><rect id="qr background" fill-opacity="1" fill="rgb(255, 255, 255)" x="-1" y="-1" width="31" height="31"></rect><path fill-opacity="1" fill="rgb(0, 0, 0)" id="qr dark pixels" fill-rule="evenodd" d="M 8 0 L 10 0 L 10 1 L 8 1 z M 14 0 L 15 0 L 15 1 L 14 1 z M 16 0 L 17 0 L 17 1 L 18 1 L 18 0 L 21 0 L 21 1 L 19 1 L 19 3 L 18 3 L 18 2 L 17 2 L 17 3 L 18 3 L 18 6 L 17 6 L 17 5 L 15 5 L 15 7 L 14 7 L 14 6 L 13 6 L 13 7 L 12 7 L 12 5 L 14 5 L 14 4 L 13 4 L 13 3 L 12 3 L 12 5 L 10 5 L 10 6 L 9 6 L 9 5 L 8 5 L 8 2 L 9 2 L 9 3 L 10 3 L 10 4 L 11 4 L 11 2 L 14 2 L 14 3 L 15 3 L 15 2 L 16 2 z M 20 2 L 21 2 L 21 4 L 20 4 z M 19 4 L 20 4 L 20 5 L 21 5 L 21 7 L 20 7 L 20 6 L 19 6 z M 8 6 L 9 6 L 9 7 L 8 7 z M 10 6 L 11 6 L 11 7 L 10 7 z M 16 6 L 17 6 L 17 7 L 16 7 z M 18 6 L 19 6 L 19 7 L 18 7 z M 9 7 L 10 7 L 10 8 L 9 8 z M 11 7 L 12 7 L 12 8 L 11 8 z M 17 7 L 18 7 L 18 9 L 20 9 L 20 10 L 19 10 L 19 11 L 20 11 L 20 12 L 22 12 L 22 13 L 23 13 L 23 12 L 24 12 L 24 14 L 21 14 L 21 15 L 22 15 L 22 16 L 19 16 L 19 14 L 15 14 L 15 15 L 14 15 L 14 14 L 13 14 L 13 13 L 15 13 L 15 11 L 16 11 L 16 13 L 17 13 L 17 12 L 18 12 L 18 13 L 19 13 L 19 12 L 18 12 L 18 10 L 17 10 L 17 11 L 16 11 L 16 9 L 15 9 L 15 11 L 14 11 L 14 12 L 12 12 L 12 14 L 10 14 L 10 13 L 11 13 L 11 11 L 13 11 L 13 10 L 14 10 L 14 8 L 17 8 z M 19 7 L 20 7 L 20 8 L 19 8 z M 0 8 L 4 8 L 4 9 L 5 9 L 5 10 L 4 10 L 4 13 L 3 13 L 3 14 L 2 14 L 2 10 L 3 10 L 3 9 L 2 9 L 2 10 L 0 10 z M 6 8 L 7 8 L 7 9 L 6 9 z M 8 8 L 9 8 L 9 9 L 8 9 z M 21 8 L 22 8 L 22 9 L 21 9 z M 24 8 L 27 8 L 27 9 L 25 9 L 25 10 L 24 10 z M 28 8 L 29 8 L 29 10 L 28 10 z M 9 9 L 10 9 L 10 10 L 9 10 z M 22 9 L 23 9 L 23 10 L 22 10 z M 6 10 L 7 10 L 7 11 L 6 11 z M 20 10 L 22 10 L 22 11 L 20 11 z M 26 10 L 28 10 L 28 11 L 26 11 z M 0 11 L 1 11 L 1 14 L 2 14 L 2 15 L 0 15 z M 8 11 L 9 11 L 9 12 L 8 12 z M 25 11 L 26 11 L 26 12 L 27 12 L 27 13 L 25 13 z M 28 11 L 29 11 L 29 12 L 28 12 z M 5 12 L 8 12 L 8 13 L 6 13 L 6 14 L 4 14 L 4 13 L 5 13 z M 9 12 L 10 12 L 10 13 L 9 13 z M 27 13 L 29 13 L 29 15 L 28 15 L 28 18 L 27 18 L 27 21 L 29 21 L 29 22 L 28 22 L 28 24 L 27 24 L 27 22 L 26 22 L 26 24 L 27 24 L 27 26 L 26 26 L 26 25 L 25 25 L 25 26 L 24 26 L 24 25 L 21 25 L 21 26 L 20 26 L 20 24 L 18 24 L 18 23 L 16 23 L 16 21 L 17 21 L 17 22 L 18 22 L 18 21 L 17 21 L 17 19 L 20 19 L 20 20 L 19 20 L 19 22 L 20 22 L 20 20 L 22 20 L 22 18 L 23 18 L 23 19 L 24 19 L 24 20 L 26 20 L 26 19 L 25 19 L 25 18 L 26 18 L 26 17 L 27 17 L 27 15 L 24 15 L 24 14 L 27 14 zM 21 21 L 24 21 L 24 24 L 21 24 z M 6 14 L 7 14 L 7 15 L 6 15 z M 9 14 L 10 14 L 10 16 L 9 16 z M 12 14 L 13 14 L 13 15 L 14 15 L 14 16 L 12 16 z M 2 15 L 4 15 L 4 16 L 3 16 L 3 17 L 2 17 L 2 18 L 1 18 L 1 16 L 2 16 z M 15 15 L 17 15 L 17 16 L 15 16 z M 23 15 L 24 15 L 24 16 L 25 16 L 25 17 L 23 17 z M 6 16 L 7 16 L 7 17 L 6 17 z M 11 16 L 12 16 L 12 17 L 11 17 z M 18 16 L 19 16 L 19 18 L 18 18 z M 7 17 L 8 17 L 8 18 L 9 18 L 9 19 L 5 19 L 5 20 L 12 20 L 12 19 L 11 19 L 11 18 L 12 18 L 12 17 L 14 17 L 14 18 L 13 18 L 13 20 L 14 20 L 14 21 L 15 21 L 15 22 L 14 22 L 14 23 L 11 23 L 11 22 L 12 22 L 12 21 L 11 21 L 11 22 L 8 22 L 8 21 L 4 21 L 4 19 L 2 19 L 2 18 L 7 18 z M 15 17 L 16 17 L 16 20 L 15 20 z M 0 18 L 1 18 L 1 19 L 0 19 z M 1 20 L 3 20 L 3 21 L 1 21 z M 22 22 L 23 22 L 23 23 L 22 23 z M 10 23 L 11 23 L 11 25 L 10 25 z M 15 23 L 16 23 L 16 24 L 15 24 z M 12 24 L 13 24 L 13 26 L 12 26 L 12 28 L 11 28 L 11 29 L 10 29 L 10 28 L 9 28 L 9 29 L 8 29 L 8 25 L 9 25 L 9 26 L 10 26 L 10 27 L 11 27 L 11 25 L 12 25 z M 14 24 L 15 24 L 15 25 L 16 25 L 16 26 L 14 26 z M 17 24 L 18 24 L 18 25 L 19 25 L 19 26 L 20 26 L 20 27 L 21 27 L 21 26 L 22 26 L 22 29 L 20 29 L 20 28 L 19 28 L 19 27 L 18 27 L 18 26 L 17 26 z M 28 25 L 29 25 L 29 27 L 28 27 z M 13 26 L 14 26 L 14 27 L 13 27 z M 14 27 L 17 27 L 17 28 L 15 28 L 15 29 L 14 29 z M 23 27 L 25 27 L 25 28 L 26 28 L 26 29 L 23 29 z M 27 27 L 28 27 L 28 29 L 27 29 z M 12 28 L 13 28 L 13 29 L 12 29 z M 18 28 L 19 28 L 19 29 L 18 29 z"></path><path id="qr squares" d="M0,0h7h0v0v7v0h0h-7h0v0v-7v0h0zM1,1h5h0v0v5v0h0h-5h0v0v-5v0h0zM2,2h3h0v0v3v0h0h-3h0v0v-3v0h0z M22,0h7h0v0v7v0h0h-7h0v0v-7v0h0zM23,1h5h0v0v5v0h0h-5h0v0v-5v0h0zM24,2h3h0v0v3v0h0h-3h0v0v-3v0h0z M0,22h7h0v0v7v0h0h-7h0v0v-7v0h0zM1,23h5h0v0v5v0h0h-5h0v0v-5v0h0zM2,24h3h0v0v3v0h0h-3h0v0v-3v0h0z" fill-rule="evenodd" fill-opacity="1" fill="rgb(0, 0, 0)"></path></svg>